<svg width="512" height="512" viewBox="0 0 512 512" fill="none" xmlns="http://www.w3.org/2000/svg">
<g clip-path="url(#clip0_18_60)">
<path d="M132.848 91.338C132.848 52.288 187.985 20.631 256 20.631C324.015 20.631 379.152 52.287 379.152 91.338H132.848Z" fill="#EB4E49"/>
<path d="M272 16H240C236.134 16 233 19.134 233 23V72C233 75.866 236.134 79 240 79H272C275.866 79 279 75.866 279 72V23C279 19.134 275.866 16 272 16Z" fill="#FBA026"/>
<path d="M114.797 236.178L116.098 236.557H117.453H394.547H395.902L397.204 236.178C423.596 228.491 445.934 218.528 461.89 206.667C477.694 194.919 488.713 180.122 488.713 162.748C488.713 147.654 480.356 134.471 467.902 123.652C455.424 112.812 437.92 103.482 417.112 95.8369C375.421 80.5182 318.458 71.232 256 71.232C193.542 71.232 136.579 80.5182 94.8882 95.8369C74.0804 103.482 56.5759 112.812 44.098 123.652C31.6439 134.471 23.287 147.654 23.287 162.748C23.287 180.122 34.3062 194.919 50.1099 206.667C66.066 218.528 88.4036 228.491 114.797 236.178Z" fill="#EB4E49" stroke="#FBA026" stroke-width="19"/>
<path d="M348.143 375.322L385.601 412.782L297.308 501.075L255.871 459.639L348.143 375.322Z" fill="#FAC51C"/>
<path d="M332.63 391.681L377.771 338.352C388.683 322.98 394.545 304.595 394.545 285.744V172.754C394.545 157.639 382.292 145.387 367.178 145.387H144.821C129.706 145.387 117.454 157.64 117.454 172.754V285.743C117.454 304.594 123.316 322.979 134.228 338.351L179.369 391.68L332.63 391.681Z" fill="#EFEFEF"/>
<path d="M158.504 186.439V240.318C158.504 248.348 165.014 254.857 173.043 254.857H226.452C231.435 254.857 235.475 250.818 235.475 245.834C235.475 240.851 239.514 236.811 244.498 236.811H267.504C272.487 236.811 276.527 240.85 276.527 245.834C276.527 250.817 280.566 254.857 285.55 254.857H338.959C346.989 254.857 353.498 248.347 353.498 240.318V186.439H158.504Z" fill="#FBA026"/>
<path d="M255.999 458.399C213.558 458.399 179.029 423.87 179.029 381.429C179.029 338.988 213.558 304.459 255.999 304.459C298.44 304.459 332.969 338.988 332.969 381.429C332.969 423.87 298.441 458.399 255.999 458.399Z" fill="#FBA026"/>
<path d="M255.999 458.399C213.558 458.399 179.029 423.87 179.029 381.429C179.029 338.988 213.558 304.459 255.999 304.459C298.44 304.459 332.969 338.988 332.969 381.429C332.969 423.87 298.441 458.399 255.999 458.399Z" stroke="#FBA026"/>
<path d="M354.698 501.734L383.725 472.708L354.698 443.682L325.672 472.708L354.698 501.734Z" fill="#EFEFEF"/>
<path d="M279.708 397.581C279.493 397.716 279.277 397.849 279.058 397.977C274.174 400.852 272.544 407.143 275.42 412.027C277.333 415.277 280.757 417.085 284.274 417.085C286.043 417.085 287.836 416.627 289.47 415.665C289.867 415.431 290.261 415.192 290.651 414.946C295.446 411.924 296.884 405.586 293.862 400.792C290.84 395.997 284.503 394.56 279.708 397.581Z" fill="#EB4E49"/>
</g>
<defs>
<clipPath id="clip0_18_60">
<rect width="512.001" height="512.001" fill="white"/>
</clipPath>
</defs>
</svg>
