<svg width="576" height="541" viewBox="0 0 576 541" fill="none" xmlns="http://www.w3.org/2000/svg">
<path d="M139.581 97.7014C139.581 50.6432 206.025 12.4941 287.989 12.4941C369.952 12.4941 436.396 50.642 436.396 97.7014H139.581Z" fill="#EB4E49"/>
<path d="M315.817 0H260.165V82.861H315.817V0Z" fill="#FBA026"/>
<path d="M118.373 270.374L119.674 270.753H121.029H454.948H456.304L457.605 270.374C489.287 261.147 515.965 249.223 534.939 235.118C553.762 221.126 566.477 203.802 566.477 183.756C566.477 166.339 556.839 150.944 542.069 138.113C527.275 125.261 506.418 114.119 481.469 104.952C431.494 86.5892 363.087 75.4204 287.989 75.4204C212.89 75.4204 144.483 86.5892 94.5085 104.952C69.5589 114.119 48.7025 125.261 33.9083 138.113C19.1378 150.944 9.5 166.339 9.5 183.756C9.5 203.802 22.2155 221.126 41.0377 235.118C60.0123 249.223 86.6906 261.147 118.373 270.374Z" fill="#EB4E49" stroke="#FBA026" stroke-width="19"/>
<path d="M425.029 377.958C433.244 367.855 447.953 366.004 458.415 373.757V373.757C469.219 381.762 471.488 397.01 463.482 407.814L426.477 457.756C418.012 469.181 401.887 471.58 390.462 463.115V463.115C378.671 454.379 376.556 437.57 385.814 426.184L425.029 377.958Z" fill="#EB4E49"/>
<path d="M145.605 373.622C136.942 363.867 122.114 362.713 112.046 371.009V371.009C101.766 379.479 100.24 394.654 108.627 405.001L147.599 453.08C156.57 464.147 172.839 465.783 183.834 456.725V456.725C195.054 447.481 196.356 430.768 186.702 419.898L145.605 373.622Z" fill="#EB4E49"/>
<path d="M426.421 388.938L375.465 449.138L200.511 449.137L149.555 388.937C137.827 372.261 131.53 352.368 131.53 331.974V195.814C131.53 183.399 141.594 173.335 154.009 173.335H421.967C434.381 173.335 444.446 183.399 444.446 195.814V331.976C444.446 352.369 438.149 372.262 426.421 388.938Z" fill="#EB4E49" stroke="#FBA026" stroke-width="21"/>
<path d="M170.499 212.305V277.234C170.499 286.91 178.344 294.754 188.019 294.754H252.381C258.386 294.754 263.254 289.887 263.254 283.881C263.254 277.876 268.122 273.008 274.128 273.008H301.852C307.857 273.008 312.725 277.875 312.725 283.881C312.725 289.886 317.592 294.754 323.599 294.754H387.961C397.637 294.754 405.481 286.909 405.481 277.234V212.305H170.499Z" fill="#FBA026"/>
<path d="M287.987 530.038C242.366 530.038 205.233 492.905 205.233 447.283C205.233 401.661 242.366 364.529 287.987 364.529C333.609 364.529 370.742 401.661 370.742 447.283C370.742 492.905 333.61 530.038 287.987 530.038Z" fill="#FBA026" stroke="#EB4E49" stroke-width="20"/>
<path d="M316.559 466.748C316.3 466.91 316.04 467.071 315.776 467.225C309.89 470.689 307.926 478.271 311.392 484.156C313.697 488.073 317.823 490.251 322.061 490.251C324.193 490.251 326.354 489.7 328.323 488.54C328.801 488.258 329.276 487.97 329.746 487.674C335.524 484.032 337.257 476.394 333.616 470.617C329.974 464.839 322.337 463.107 316.559 466.748Z" fill="#EB4E49"/>
</svg>
